<?xml version="1.0" encoding="UTF-8" standalone="no"?>
<svg xmlns="http://www.w3.org/2000/svg" xmlns:xlink="http://www.w3.org/1999/xlink" contentScriptType="application/ecmascript" contentStyleType="text/css" height="569px" preserveAspectRatio="none" style="width:740px;height:569px;background:#FFFFFF;" version="1.1" viewBox="0 0 740 569" width="740px" zoomAndPan="magnify"><defs><filter height="300%" id="f1iknfw3vahi51" width="300%" x="-1" y="-1"><feGaussianBlur result="blurOut" stdDeviation="2.0"/><feColorMatrix in="blurOut" result="blurOut2" type="matrix" values="0 0 0 0 0 0 0 0 0 0 0 0 0 0 0 0 0 0 .4 0"/><feOffset dx="4.0" dy="4.0" in="blurOut2" result="blurOut3"/><feBlend in="SourceGraphic" in2="blurOut3" mode="normal"/></filter></defs><g><!--MD5=[b34797a66dc35cbf1d65f7e3ca75530e]
class Task--><rect codeLine="2" fill="#FEFECE" filter="url(#f1iknfw3vahi51)" height="105.1563" id="Task" style="stroke:#A80036;stroke-width:1.5;" width="152" x="266" y="253"/><ellipse cx="305.3" cy="271.9688" fill="#DA70D6" rx="11" ry="11" style="stroke:#A80036;stroke-width:1.0;"/><path d="M302.8156,275.2656 C302.1594,275.2656 301.7688,275.5781 301.7688,276.125 C301.7688,276.375 301.9094,276.6406 302.1281,276.7969 C302.2844,276.9219 302.5031,276.9688 302.9094,276.9688 L306.3781,276.9688 C307.8625,276.9688 308.8781,276.5781 309.7063,275.6875 C310.4875,274.875 310.8938,273.8281 310.8938,272.5781 L310.8938,271.7813 C310.8938,269.1094 309.0031,267.0625 306.5188,267.0625 L302.9094,267.0625 C302.4563,267.0625 302.3313,267.0781 302.175,267.1719 C301.925,267.3281 301.7688,267.625 301.7688,267.9063 C301.7688,268.4531 302.1438,268.75 302.8156,268.75 L302.8156,275.2656 Z M304.5031,275.2656 L304.5031,268.75 L306.3781,268.75 C307.2844,268.75 307.925,269.0313 308.4406,269.625 C308.925,270.2031 309.2063,270.9531 309.2063,271.75 L309.2063,272.5313 C309.2063,273.4063 308.9719,274 308.5031,274.5156 C307.9719,275.0625 307.4094,275.2656 306.3938,275.2656 L304.5031,275.2656 Z " fill="#000000"/><text fill="#000000" font-family="sans-serif" font-size="12" font-style="italic" lengthAdjust="spacing" textLength="70" x="322.7" y="269.1387">«dataclass»</text><text fill="#000000" font-family="sans-serif" font-size="12" lengthAdjust="spacing" textLength="28" x="343.7" y="283.1074">Task</text><line style="stroke:#A80036;stroke-width:1.5;" x1="267" x2="417" y1="290.9375" y2="290.9375"/><ellipse cx="277" cy="301.9375" rx="3" ry="3" style="stroke:#038048;stroke-width:1.0;fill:none;"/><text fill="#000000" font-family="sans-serif" font-size="11" lengthAdjust="spacing" textLength="111" x="286" y="305.1479">String tableNameA:</text><ellipse cx="277" cy="314.7422" rx="3" ry="3" style="stroke:#038048;stroke-width:1.0;fill:none;"/><text fill="#000000" font-family="sans-serif" font-size="11" lengthAdjust="spacing" textLength="108" x="286" y="317.9526">String tableNameB</text><ellipse cx="277" cy="327.5469" rx="3" ry="3" style="stroke:#038048;stroke-width:1.0;fill:none;"/><text fill="#000000" font-family="sans-serif" font-size="11" lengthAdjust="spacing" textLength="126" x="286" y="330.7573">String columnNamesA</text><ellipse cx="277" cy="340.3516" rx="3" ry="3" style="stroke:#038048;stroke-width:1.0;fill:none;"/><text fill="#000000" font-family="sans-serif" font-size="11" lengthAdjust="spacing" textLength="126" x="286" y="343.562">String columnNamesB</text><line style="stroke:#A80036;stroke-width:1.5;" x1="267" x2="417" y1="350.1563" y2="350.1563"/><!--MD5=[ad4adf042949c426453e3503d5e322ca]
class InclusionDependency--><rect codeLine="9" fill="#FEFECE" filter="url(#f1iknfw3vahi51)" height="105.1563" id="InclusionDependency" style="stroke:#A80036;stroke-width:1.5;" width="170" x="453" y="253"/><ellipse cx="472.05" cy="271.9688" fill="#DA70D6" rx="11" ry="11" style="stroke:#A80036;stroke-width:1.0;"/><path d="M469.5656,275.2656 C468.9094,275.2656 468.5188,275.5781 468.5188,276.125 C468.5188,276.375 468.6594,276.6406 468.8781,276.7969 C469.0344,276.9219 469.2531,276.9688 469.6594,276.9688 L473.1281,276.9688 C474.6125,276.9688 475.6281,276.5781 476.4563,275.6875 C477.2375,274.875 477.6438,273.8281 477.6438,272.5781 L477.6438,271.7813 C477.6438,269.1094 475.7531,267.0625 473.2688,267.0625 L469.6594,267.0625 C469.2063,267.0625 469.0813,267.0781 468.925,267.1719 C468.675,267.3281 468.5188,267.625 468.5188,267.9063 C468.5188,268.4531 468.8938,268.75 469.5656,268.75 L469.5656,275.2656 Z M471.2531,275.2656 L471.2531,268.75 L473.1281,268.75 C474.0344,268.75 474.675,269.0313 475.1906,269.625 C475.675,270.2031 475.9563,270.9531 475.9563,271.75 L475.9563,272.5313 C475.9563,273.4063 475.7219,274 475.2531,274.5156 C474.7219,275.0625 474.1594,275.2656 473.1438,275.2656 L471.2531,275.2656 Z " fill="#000000"/><text fill="#000000" font-family="sans-serif" font-size="12" font-style="italic" lengthAdjust="spacing" textLength="70" x="516.45" y="269.1387">«dataclass»</text><text fill="#000000" font-family="sans-serif" font-size="12" lengthAdjust="spacing" textLength="129" x="486.95" y="283.1074">InclusionDependency</text><line style="stroke:#A80036;stroke-width:1.5;" x1="454" x2="622" y1="290.9375" y2="290.9375"/><ellipse cx="464" cy="301.9375" rx="3" ry="3" style="stroke:#038048;stroke-width:1.0;fill:none;"/><text fill="#000000" font-family="sans-serif" font-size="11" lengthAdjust="spacing" textLength="132" x="473" y="305.1479">String dependentTable</text><ellipse cx="464" cy="314.7422" rx="3" ry="3" style="stroke:#038048;stroke-width:1.0;fill:none;"/><text fill="#000000" font-family="sans-serif" font-size="11" lengthAdjust="spacing" textLength="133" x="473" y="317.9526">String referencedTable</text><ellipse cx="464" cy="327.5469" rx="3" ry="3" style="stroke:#038048;stroke-width:1.0;fill:none;"/><text fill="#000000" font-family="sans-serif" font-size="11" lengthAdjust="spacing" textLength="143" x="473" y="330.7573">String dependentColumn</text><ellipse cx="464" cy="340.3516" rx="3" ry="3" style="stroke:#038048;stroke-width:1.0;fill:none;"/><text fill="#000000" font-family="sans-serif" font-size="11" lengthAdjust="spacing" textLength="144" x="473" y="343.562">String referencedColumn</text><line style="stroke:#A80036;stroke-width:1.5;" x1="454" x2="622" y1="350.1563" y2="350.1563"/><!--MD5=[3e567e4c5fb30c0cc0b9912190b2606f]
class TaskMessage--><rect codeLine="18" fill="#FEFECE" filter="url(#f1iknfw3vahi51)" height="92.3516" id="TaskMessage" style="stroke:#A80036;stroke-width:1.5;" width="241" x="221.5" y="463"/><ellipse cx="247.75" cy="481.9688" fill="#ADD8E6" rx="11" ry="11" style="stroke:#A80036;stroke-width:1.0;"/><path d="M244.6563,480.3594 L246.6719,484.625 L248.2188,484.625 L250.1094,480.3594 L250.1094,485.2656 L249.5156,485.2656 C249.0625,485.2656 248.9531,485.2813 248.7969,485.3906 C248.5469,485.5469 248.3906,485.8281 248.3906,486.125 C248.3906,486.375 248.5156,486.6406 248.75,486.7969 C248.875,486.9219 249.125,486.9688 249.5156,486.9688 L251.7188,486.9688 C252.0625,486.9688 252.3125,486.9219 252.4375,486.8438 C252.6875,486.6875 252.8438,486.4063 252.8438,486.125 C252.8438,485.5781 252.4688,485.2656 251.7969,485.2656 L251.7969,478.75 C252.3594,478.7031 252.6875,478.4063 252.6875,477.9063 C252.6875,477.6406 252.5469,477.375 252.3438,477.2031 C252.1719,477.0938 252.0313,477.0625 251.5625,477.0625 L249.7031,477.0625 L247.4063,482.1094 L245.0625,477.0625 L243.2031,477.0625 C243.1875,477.0469 243.1719,477.0469 243.1406,477.0469 C242.9375,477.0469 242.5781,477.1094 242.4844,477.1563 C242.2344,477.3281 242.0781,477.625 242.0781,477.8906 C242.0781,478.4063 242.4063,478.7031 242.9688,478.75 L242.9688,485.2656 C242.2969,485.2656 241.9219,485.5781 241.9219,486.125 C241.9219,486.3906 242.0625,486.6406 242.2813,486.7969 C242.4375,486.9219 242.6563,486.9688 243.0625,486.9688 L245.2656,486.9688 C245.5938,486.9688 245.8594,486.9219 245.9688,486.8438 C246.2344,486.6875 246.375,486.4063 246.375,486.125 C246.375,485.8438 246.2656,485.5938 246.0469,485.4219 C245.8594,485.2969 245.7188,485.2656 245.2656,485.2656 L244.6563,485.2656 L244.6563,480.3594 Z " fill="#000000"/><text fill="#000000" font-family="sans-serif" font-size="12" font-style="italic" lengthAdjust="spacing" textLength="188" x="262.25" y="479.1387">«DependencyWorker.Message»</text><text fill="#000000" font-family="sans-serif" font-size="12" lengthAdjust="spacing" textLength="83" x="314.75" y="493.1074">TaskMessage</text><line style="stroke:#A80036;stroke-width:1.5;" x1="222.5" x2="461.5" y1="500.9375" y2="500.9375"/><ellipse cx="232.5" cy="511.9375" rx="3" ry="3" style="stroke:#038048;stroke-width:1.0;fill:none;"/><text fill="#000000" font-family="sans-serif" font-size="11" lengthAdjust="spacing" textLength="26" x="241.5" y="515.1479">Task</text><text fill="#000000" font-family="sans-serif" font-size="11" lengthAdjust="spacing" textLength="23" x="369.5" y="515.1479">task</text><ellipse cx="232.5" cy="524.7422" rx="3" ry="3" style="stroke:#038048;stroke-width:1.0;fill:none;"/><text fill="#000000" font-family="sans-serif" font-size="11" lengthAdjust="spacing" textLength="108" x="241.5" y="527.9526">List&lt;Set&lt;String&gt;&gt;</text><text fill="#000000" font-family="sans-serif" font-size="11" lengthAdjust="spacing" textLength="87" x="369.5" y="527.9526">distinctValuesA</text><ellipse cx="232.5" cy="537.5469" rx="3" ry="3" style="stroke:#038048;stroke-width:1.0;fill:none;"/><text fill="#000000" font-family="sans-serif" font-size="11" lengthAdjust="spacing" textLength="108" x="241.5" y="540.7573">List&lt;Set&lt;String&gt;&gt;</text><text fill="#000000" font-family="sans-serif" font-size="11" lengthAdjust="spacing" textLength="87" x="369.5" y="540.7573">distinctValuesB</text><line style="stroke:#A80036;stroke-width:1.5;" x1="222.5" x2="461.5" y1="547.3516" y2="547.3516"/><!--MD5=[8a3e1156d256c91e942d891a77c994bc]
class CompletionMessage--><rect codeLine="26" fill="#FEFECE" filter="url(#f1iknfw3vahi51)" height="66.7422" id="CompletionMessage" style="stroke:#A80036;stroke-width:1.5;" width="228" x="498" y="475.5"/><ellipse cx="522.9" cy="494.4688" fill="#ADD8E6" rx="11" ry="11" style="stroke:#A80036;stroke-width:1.0;"/><path d="M519.8063,492.8594 L521.8219,497.125 L523.3688,497.125 L525.2594,492.8594 L525.2594,497.7656 L524.6656,497.7656 C524.2125,497.7656 524.1031,497.7813 523.9469,497.8906 C523.6969,498.0469 523.5406,498.3281 523.5406,498.625 C523.5406,498.875 523.6656,499.1406 523.9,499.2969 C524.025,499.4219 524.275,499.4688 524.6656,499.4688 L526.8688,499.4688 C527.2125,499.4688 527.4625,499.4219 527.5875,499.3438 C527.8375,499.1875 527.9938,498.9063 527.9938,498.625 C527.9938,498.0781 527.6188,497.7656 526.9469,497.7656 L526.9469,491.25 C527.5094,491.2031 527.8375,490.9063 527.8375,490.4063 C527.8375,490.1406 527.6969,489.875 527.4938,489.7031 C527.3219,489.5938 527.1813,489.5625 526.7125,489.5625 L524.8531,489.5625 L522.5563,494.6094 L520.2125,489.5625 L518.3531,489.5625 C518.3375,489.5469 518.3219,489.5469 518.2906,489.5469 C518.0875,489.5469 517.7281,489.6094 517.6344,489.6563 C517.3844,489.8281 517.2281,490.125 517.2281,490.3906 C517.2281,490.9063 517.5563,491.2031 518.1188,491.25 L518.1188,497.7656 C517.4469,497.7656 517.0719,498.0781 517.0719,498.625 C517.0719,498.8906 517.2125,499.1406 517.4313,499.2969 C517.5875,499.4219 517.8063,499.4688 518.2125,499.4688 L520.4156,499.4688 C520.7438,499.4688 521.0094,499.4219 521.1188,499.3438 C521.3844,499.1875 521.525,498.9063 521.525,498.625 C521.525,498.3438 521.4156,498.0938 521.1969,497.9219 C521.0094,497.7969 520.8688,497.7656 520.4156,497.7656 L519.8063,497.7656 L519.8063,492.8594 Z " fill="#000000"/><text fill="#000000" font-family="sans-serif" font-size="12" font-style="italic" lengthAdjust="spacing" textLength="178" x="537.1" y="491.6387">«DependencyMiner.Message»</text><text fill="#000000" font-family="sans-serif" font-size="12" lengthAdjust="spacing" textLength="123" x="564.6" y="505.6074">CompletionMessage</text><line style="stroke:#A80036;stroke-width:1.5;" x1="499" x2="725" y1="513.4375" y2="513.4375"/><ellipse cx="509" cy="524.4375" rx="3" ry="3" style="stroke:#038048;stroke-width:1.0;fill:none;"/><text fill="#000000" font-family="sans-serif" font-size="11" lengthAdjust="spacing" textLength="202" x="518" y="527.6479">List&lt;InclusionDependency&gt; results</text><line style="stroke:#A80036;stroke-width:1.5;" x1="499" x2="725" y1="534.2422" y2="534.2422"/><!--MD5=[43ad83f87ee79b03f97f1ec126056886]
class TaskGenerator--><rect codeLine="48" fill="#FEFECE" filter="url(#f1iknfw3vahi51)" height="124.8281" id="TaskGenerator" style="stroke:#A80036;stroke-width:1.5;" width="209" x="111.5" y="7"/><ellipse cx="167.25" cy="23" fill="#ADD1B2" rx="11" ry="11" style="stroke:#A80036;stroke-width:1.0;"/><path d="M169.5938,18.6719 C168.6563,18.2344 168.0625,18.0938 167.1875,18.0938 C164.5625,18.0938 162.5625,20.1719 162.5625,22.8906 L162.5625,24.0156 C162.5625,26.5938 164.6719,28.4844 167.5625,28.4844 C168.7813,28.4844 169.9375,28.1875 170.6875,27.6406 C171.2656,27.2344 171.5938,26.7813 171.5938,26.3906 C171.5938,25.9375 171.2031,25.5469 170.7344,25.5469 C170.5156,25.5469 170.3125,25.625 170.125,25.8125 C169.6719,26.2969 169.6719,26.2969 169.4844,26.3906 C169.0625,26.6563 168.375,26.7813 167.6094,26.7813 C165.5625,26.7813 164.2656,25.6875 164.2656,23.9844 L164.2656,22.8906 C164.2656,21.1094 165.5156,19.7969 167.25,19.7969 C167.8281,19.7969 168.4375,19.9531 168.9063,20.2031 C169.3906,20.4844 169.5625,20.7031 169.6563,21.1094 C169.7188,21.5156 169.75,21.6406 169.8906,21.7656 C170.0313,21.9063 170.2656,22.0156 170.4844,22.0156 C170.75,22.0156 171.0156,21.875 171.1875,21.6563 C171.2969,21.5 171.3281,21.3125 171.3281,20.8906 L171.3281,19.4688 C171.3281,19.0313 171.3125,18.9063 171.2188,18.75 C171.0625,18.4844 170.7813,18.3438 170.4844,18.3438 C170.1875,18.3438 169.9844,18.4375 169.7656,18.75 L169.5938,18.6719 Z " fill="#000000"/><text fill="#000000" font-family="sans-serif" font-size="12" lengthAdjust="spacing" textLength="89" x="187.75" y="27.1543">TaskGenerator</text><line style="stroke:#A80036;stroke-width:1.5;" x1="112.5" x2="319.5" y1="39" y2="39"/><line style="stroke:#A80036;stroke-width:1.5;" x1="112.5" x2="319.5" y1="47" y2="47"/><ellipse cx="122.5" cy="58" fill="#84BE84" rx="3" ry="3" style="stroke:#038048;stroke-width:1.0;"/><text fill="#000000" font-family="sans-serif" font-size="11" lengthAdjust="spacing" textLength="123" x="131.5" y="61.2104">static List&lt;Task&gt; run(</text><text fill="#000000" font-family="sans-serif" font-size="11" lengthAdjust="spacing" textLength="133" x="147.5" y="74.0151">LocalDataStorage data,</text><text fill="#000000" font-family="sans-serif" font-size="11" lengthAdjust="spacing" textLength="77" x="147.5" y="86.8198">String tableA,</text><text fill="#000000" font-family="sans-serif" font-size="11" lengthAdjust="spacing" textLength="77" x="147.5" y="99.6245">String tableB,</text><text fill="#000000" font-family="sans-serif" font-size="11" lengthAdjust="spacing" textLength="166" x="147.5" y="112.4292">List&lt;String&gt; columnNamesA,</text><text fill="#000000" font-family="sans-serif" font-size="11" lengthAdjust="spacing" textLength="167" x="147.5" y="125.2339">List&lt;String&gt; columnNamesB)</text><!--MD5=[7bf2dd6d93eca3eb63a5887cfe837ba8]
class CombinationGenerator--><rect codeLine="54" fill="#FEFECE" filter="url(#f1iknfw3vahi51)" height="86.4141" id="CombinationGenerator" style="stroke:#A80036;stroke-width:1.5;" width="238" x="419" y="26.5"/><ellipse cx="466.25" cy="42.5" fill="#ADD1B2" rx="11" ry="11" style="stroke:#A80036;stroke-width:1.0;"/><path d="M468.5938,38.1719 C467.6563,37.7344 467.0625,37.5938 466.1875,37.5938 C463.5625,37.5938 461.5625,39.6719 461.5625,42.3906 L461.5625,43.5156 C461.5625,46.0938 463.6719,47.9844 466.5625,47.9844 C467.7813,47.9844 468.9375,47.6875 469.6875,47.1406 C470.2656,46.7344 470.5938,46.2813 470.5938,45.8906 C470.5938,45.4375 470.2031,45.0469 469.7344,45.0469 C469.5156,45.0469 469.3125,45.125 469.125,45.3125 C468.6719,45.7969 468.6719,45.7969 468.4844,45.8906 C468.0625,46.1563 467.375,46.2813 466.6094,46.2813 C464.5625,46.2813 463.2656,45.1875 463.2656,43.4844 L463.2656,42.3906 C463.2656,40.6094 464.5156,39.2969 466.25,39.2969 C466.8281,39.2969 467.4375,39.4531 467.9063,39.7031 C468.3906,39.9844 468.5625,40.2031 468.6563,40.6094 C468.7188,41.0156 468.75,41.1406 468.8906,41.2656 C469.0313,41.4063 469.2656,41.5156 469.4844,41.5156 C469.75,41.5156 470.0156,41.375 470.1875,41.1563 C470.2969,41 470.3281,40.8125 470.3281,40.3906 L470.3281,38.9688 C470.3281,38.5313 470.3125,38.4063 470.2188,38.25 C470.0625,37.9844 469.7813,37.8438 469.4844,37.8438 C469.1875,37.8438 468.9844,37.9375 468.7656,38.25 L468.5938,38.1719 Z " fill="#000000"/><text fill="#000000" font-family="sans-serif" font-size="12" lengthAdjust="spacing" textLength="135" x="486.75" y="46.6543">CombinationGenerator</text><line style="stroke:#A80036;stroke-width:1.5;" x1="420" x2="656" y1="58.5" y2="58.5"/><line style="stroke:#A80036;stroke-width:1.5;" x1="420" x2="656" y1="66.5" y2="66.5"/><ellipse cx="430" cy="77.5" fill="#84BE84" rx="3" ry="3" style="stroke:#038048;stroke-width:1.0;"/><text fill="#000000" font-family="sans-serif" font-size="11" lengthAdjust="spacing" textLength="123" x="439" y="80.7104">static List&lt;Task&gt; run(</text><text fill="#000000" font-family="sans-serif" font-size="11" lengthAdjust="spacing" textLength="133" x="455" y="93.5151">LocalStorageData data,</text><text fill="#000000" font-family="sans-serif" font-size="11" lengthAdjust="spacing" textLength="196" x="455" y="106.3198">List&lt;InclusionDependency&gt; deps)</text><!--MD5=[e06ef809dd6be8ce79b58fe0a1161eb8]
class Column--><rect codeLine="33" fill="#FEFECE" filter="url(#f1iknfw3vahi51)" height="73.6094" id="Column" style="stroke:#A80036;stroke-width:1.5;" width="171" x="15.5" y="472"/><ellipse cx="74.75" cy="488" fill="#ADD1B2" rx="11" ry="11" style="stroke:#A80036;stroke-width:1.0;"/><path d="M77.0938,483.6719 C76.1563,483.2344 75.5625,483.0938 74.6875,483.0938 C72.0625,483.0938 70.0625,485.1719 70.0625,487.8906 L70.0625,489.0156 C70.0625,491.5938 72.1719,493.4844 75.0625,493.4844 C76.2813,493.4844 77.4375,493.1875 78.1875,492.6406 C78.7656,492.2344 79.0938,491.7813 79.0938,491.3906 C79.0938,490.9375 78.7031,490.5469 78.2344,490.5469 C78.0156,490.5469 77.8125,490.625 77.625,490.8125 C77.1719,491.2969 77.1719,491.2969 76.9844,491.3906 C76.5625,491.6563 75.875,491.7813 75.1094,491.7813 C73.0625,491.7813 71.7656,490.6875 71.7656,488.9844 L71.7656,487.8906 C71.7656,486.1094 73.0156,484.7969 74.75,484.7969 C75.3281,484.7969 75.9375,484.9531 76.4063,485.2031 C76.8906,485.4844 77.0625,485.7031 77.1563,486.1094 C77.2188,486.5156 77.25,486.6406 77.3906,486.7656 C77.5313,486.9063 77.7656,487.0156 77.9844,487.0156 C78.25,487.0156 78.5156,486.875 78.6875,486.6563 C78.7969,486.5 78.8281,486.3125 78.8281,485.8906 L78.8281,484.4688 C78.8281,484.0313 78.8125,483.9063 78.7188,483.75 C78.5625,483.4844 78.2813,483.3438 77.9844,483.3438 C77.6875,483.3438 77.4844,483.4375 77.2656,483.75 L77.0938,483.6719 Z " fill="#000000"/><text fill="#000000" font-family="sans-serif" font-size="12" lengthAdjust="spacing" textLength="44" x="95.25" y="492.1543">Column</text><line style="stroke:#A80036;stroke-width:1.5;" x1="16.5" x2="185.5" y1="504" y2="504"/><line style="stroke:#A80036;stroke-width:1.5;" x1="16.5" x2="185.5" y1="512" y2="512"/><ellipse cx="26.5" cy="523" fill="#84BE84" rx="3" ry="3" style="stroke:#038048;stroke-width:1.0;"/><text fill="#000000" font-family="sans-serif" font-size="11" lengthAdjust="spacing" textLength="126" x="35.5" y="526.2104">void add(String value)</text><ellipse cx="26.5" cy="535.8047" fill="#84BE84" rx="3" ry="3" style="stroke:#038048;stroke-width:1.0;"/><text fill="#000000" font-family="sans-serif" font-size="11" lengthAdjust="spacing" textLength="145" x="35.5" y="539.0151">Stream&lt;String&gt; stream()</text><!--MD5=[9ea2da2254e94ab3a8fc002db019d4f9]
class LocalDataStorage--><rect codeLine="38" fill="#FEFECE" filter="url(#f1iknfw3vahi51)" height="188.8516" id="LocalDataStorage" style="stroke:#A80036;stroke-width:1.5;" width="206" x="7" y="211"/><ellipse cx="52.75" cy="227" fill="#ADD1B2" rx="11" ry="11" style="stroke:#A80036;stroke-width:1.0;"/><path d="M55.0938,222.6719 C54.1563,222.2344 53.5625,222.0938 52.6875,222.0938 C50.0625,222.0938 48.0625,224.1719 48.0625,226.8906 L48.0625,228.0156 C48.0625,230.5938 50.1719,232.4844 53.0625,232.4844 C54.2813,232.4844 55.4375,232.1875 56.1875,231.6406 C56.7656,231.2344 57.0938,230.7813 57.0938,230.3906 C57.0938,229.9375 56.7031,229.5469 56.2344,229.5469 C56.0156,229.5469 55.8125,229.625 55.625,229.8125 C55.1719,230.2969 55.1719,230.2969 54.9844,230.3906 C54.5625,230.6563 53.875,230.7813 53.1094,230.7813 C51.0625,230.7813 49.7656,229.6875 49.7656,227.9844 L49.7656,226.8906 C49.7656,225.1094 51.0156,223.7969 52.75,223.7969 C53.3281,223.7969 53.9375,223.9531 54.4063,224.2031 C54.8906,224.4844 55.0625,224.7031 55.1563,225.1094 C55.2188,225.5156 55.25,225.6406 55.3906,225.7656 C55.5313,225.9063 55.7656,226.0156 55.9844,226.0156 C56.25,226.0156 56.5156,225.875 56.6875,225.6563 C56.7969,225.5 56.8281,225.3125 56.8281,224.8906 L56.8281,223.4688 C56.8281,223.0313 56.8125,222.9063 56.7188,222.75 C56.5625,222.4844 56.2813,222.3438 55.9844,222.3438 C55.6875,222.3438 55.4844,222.4375 55.2656,222.75 L55.0938,222.6719 Z " fill="#000000"/><text fill="#000000" font-family="sans-serif" font-size="12" lengthAdjust="spacing" textLength="106" x="73.25" y="231.1543">LocalDataStorage</text><line style="stroke:#A80036;stroke-width:1.5;" x1="8" x2="212" y1="243" y2="243"/><line style="stroke:#A80036;stroke-width:1.5;" x1="8" x2="212" y1="251" y2="251"/><ellipse cx="18" cy="262" fill="#84BE84" rx="3" ry="3" style="stroke:#038048;stroke-width:1.0;"/><text fill="#000000" font-family="sans-serif" font-size="11" lengthAdjust="spacing" textLength="85" x="27" y="265.2104">void addTable(</text><text fill="#000000" font-family="sans-serif" font-size="11" lengthAdjust="spacing" textLength="103" x="43" y="278.0151">String tableName,</text><text fill="#000000" font-family="sans-serif" font-size="11" lengthAdjust="spacing" textLength="159" x="39" y="290.8198">List&lt;String&gt; columnNames)</text><ellipse cx="18" cy="300.4141" fill="#84BE84" rx="3" ry="3" style="stroke:#038048;stroke-width:1.0;"/><text fill="#000000" font-family="sans-serif" font-size="11" lengthAdjust="spacing" textLength="76" x="27" y="303.6245">void addRow(</text><text fill="#000000" font-family="sans-serif" font-size="11" lengthAdjust="spacing" textLength="103" x="43" y="316.4292">String tableName,</text><text fill="#000000" font-family="sans-serif" font-size="11" lengthAdjust="spacing" textLength="137" x="43" y="329.2339">List&lt;String&gt; rowValues)</text><ellipse cx="18" cy="338.8281" fill="#84BE84" rx="3" ry="3" style="stroke:#038048;stroke-width:1.0;"/><text fill="#000000" font-family="sans-serif" font-size="11" lengthAdjust="spacing" textLength="180" x="27" y="342.0386">List&lt;String&gt; getColumnNames(</text><text fill="#000000" font-family="sans-serif" font-size="11" lengthAdjust="spacing" textLength="104" x="43" y="354.8433">String tableName)</text><ellipse cx="18" cy="364.4375" fill="#84BE84" rx="3" ry="3" style="stroke:#038048;stroke-width:1.0;"/><text fill="#000000" font-family="sans-serif" font-size="11" lengthAdjust="spacing" textLength="94" x="27" y="367.6479">void getColumn(</text><text fill="#000000" font-family="sans-serif" font-size="11" lengthAdjust="spacing" textLength="103" x="43" y="380.4526">String tableName,</text><text fill="#000000" font-family="sans-serif" font-size="11" lengthAdjust="spacing" textLength="116" x="43" y="393.2573">String columnName)</text><!--MD5=[29f292cc5ae819d692eae41ca54cf283]
reverse link TaskMessage to Task--><path codeLine="24" d="M342,449.428 C342,420.543 342,386.013 342,358.13 " fill="none" id="TaskMessage-backto-Task" style="stroke:#A80036;stroke-width:1.0;"/><polygon fill="#FFFFFF" points="342,462.678,346,456.678,342,450.678,338,456.678,342,462.678" style="stroke:#A80036;stroke-width:1.0;"/><text fill="#000000" font-family="sans-serif" font-size="13" lengthAdjust="spacing" textLength="8" x="333.4625" y="378.2753">1</text><!--MD5=[0c0b31480e544e1dd301722c3b950081]
link InclusionDependency to CompletionMessage--><path codeLine="30" d="M556.961,358.13 C568.892,390.617 584.136,432.127 595.554,463.219 " fill="none" id="InclusionDependency-to-CompletionMessage" style="stroke:#A80036;stroke-width:1.0;"/><polygon fill="#A80036" points="600.038,475.427,601.7244,468.4159,595.9012,464.1626,594.2148,471.1737,600.038,475.427" style="stroke:#A80036;stroke-width:1.0;"/><text fill="#000000" font-family="sans-serif" font-size="13" lengthAdjust="spacing" textLength="24" x="533.8964" y="378.2753">0..n</text><!--MD5=[430cb1e8941620c138745389a4b95fea]
reverse link LocalDataStorage to Column--><path codeLine="45" d="M105.2283,413.334 C104.285,434.453 103.3576,455.215 102.6129,471.889 " fill="none" id="LocalDataStorage-backto-Column" style="stroke:#A80036;stroke-width:1.0;"/><polygon fill="#A80036" points="105.8162,400.171,101.5525,405.9866,105.2808,412.159,109.5445,406.3435,105.8162,400.171" style="stroke:#A80036;stroke-width:1.0;"/><text fill="#000000" font-family="sans-serif" font-size="13" lengthAdjust="spacing" textLength="24" x="76.7627" y="461.0562">0..n</text><!--MD5=[5b3939f20deb326880b667e2bc5fa974]
link TaskGenerator to Task--><path codeLine="51" d="M249.27,132.287 C268.598,168.182 292.771,213.074 311.59,248.024 " fill="none" id="TaskGenerator-to-Task" style="stroke:#A80036;stroke-width:1.0;stroke-dasharray:7.0,7.0;"/><polygon fill="#A80036" points="314.091,252.669,313.3435,242.8485,311.7194,248.2672,306.3007,246.6431,314.091,252.669" style="stroke:#A80036;stroke-width:1.0;"/><polygon fill="#000000" points="283.3705,176.9688,281.6699,167.6115,276.4946,170.3982,283.3705,176.9688" style="stroke:#000000;stroke-width:1.0;"/><text fill="#000000" font-family="sans-serif" font-size="13" lengthAdjust="spacing" textLength="48" x="290" y="177.0669">creates</text><!--MD5=[7b72e66cc585e26fbcb6a74d5f9f5c12]
link TaskGenerator to LocalDataStorage--><path codeLine="52" d="M141.75,132.114 C133.551,141.962 126.274,152.671 121,164 C115.022,176.841 111.184,191.058 108.826,205.374 " fill="none" id="TaskGenerator-to-LocalDataStorage" style="stroke:#A80036;stroke-width:1.0;stroke-dasharray:7.0,7.0;"/><polygon fill="#A80036" points="108.023,210.65,113.3326,202.3549,108.7759,205.707,105.4238,201.1503,108.023,210.65" style="stroke:#A80036;stroke-width:1.0;"/><polygon fill="#000000" points="123.9504,177.127,130.3388,170.0815,124.9775,167.6721,123.9504,177.127" style="stroke:#000000;stroke-width:1.0;"/><text fill="#000000" font-family="sans-serif" font-size="13" lengthAdjust="spacing" textLength="47" x="135" y="177.0669">queries</text><!--MD5=[cfa460c09f44f65b6384872674408919]
link CombinationGenerator to InclusionDependency--><path codeLine="58" d="M538,112.605 C538,150.411 538,206.216 538,247.914 " fill="none" id="CombinationGenerator-to-InclusionDependency" style="stroke:#A80036;stroke-width:1.0;stroke-dasharray:7.0,7.0;"/><polygon fill="#A80036" points="538,252.927,542,243.927,538,247.927,534,243.927,538,252.927" style="stroke:#A80036;stroke-width:1.0;"/><polygon fill="#000000" points="543,177.5664,545.9389,168.5213,540.0611,168.5213,543,177.5664" style="stroke:#000000;stroke-width:1.0;"/><text fill="#000000" font-family="sans-serif" font-size="13" lengthAdjust="spacing" textLength="57" x="552" y="177.0669">analyses</text><!--MD5=[17465b4ff69e7bcdac64ea36bd4653e2]
reverse link TaskGenerator to CombinationGenerator--><path codeLine="59" d="M325.725,69.5 C355.732,69.5 388.393,69.5 418.898,69.5 " fill="none" id="TaskGenerator-backto-CombinationGenerator" style="stroke:#A80036;stroke-width:1.0;stroke-dasharray:7.0,7.0;"/><polygon fill="#A80036" points="320.544,69.5,329.544,73.5,325.544,69.5,329.544,65.5,320.544,69.5" style="stroke:#A80036;stroke-width:1.0;"/><polygon fill="#000000" points="337.75,58.0664,346.7951,61.0053,346.7951,55.1275,337.75,58.0664" style="stroke:#000000;stroke-width:1.0;"/><text fill="#000000" font-family="sans-serif" font-size="13" lengthAdjust="spacing" textLength="49" x="351.75" y="62.5669">invokes</text><!--MD5=[bc0b6f0177c1996d349f2ba43128917f]
@startuml
together {
     class Task << (D,orchid) dataclass >> {
         +String tableNameA:
         +String tableNameB
         +String columnNamesA
         +String columnNamesB
     }
     
     class InclusionDependency << (D,orchid) dataclass >> {
         +String dependentTable
         +String referencedTable
         +String dependentColumn
         +String referencedColumn
     }
}

together {
    class TaskMessage << (M,lightblue) DependencyWorker.Message >> {
       +Task\t\t\t\ttask 
       +List<Set<String>>\tdistinctValuesA
       +List<Set<String>>\tdistinctValuesB
    }

    TaskMessage o- - "1" Task
     
    class CompletionMessage << (M,lightblue) DependencyMiner.Message >> {
        +List<InclusionDependency> results
    }
     
    InclusionDependency "0..n" - -* CompletionMessage
}

class Column {
    + void add(String value)
    + Stream<String> stream()
}

class LocalDataStorage {
    + void addTable(\n    String tableName,\n   List<String> columnNames)
    + void addRow(\n    String tableName,\n    List<String> rowValues)
    + List<String> getColumnNames(\n    String tableName)
    + void getColumn(\n    String tableName,\n    String columnName)
}

LocalDataStorage *- - "0..n" Column

together {
    class TaskGenerator {
        + static List<Task> run(\n    LocalDataStorage data,\n    String tableA,\n    String tableB, \n    List<String> columnNamesA,\n    List<String> columnNamesB)
    }
    TaskGenerator ..> Task : creates >
    TaskGenerator ..> LocalDataStorage : queries >

    class CombinationGenerator {
        + static List<Task> run(\n    LocalStorageData data,\n    List<InclusionDependency> deps) 
    }

    CombinationGenerator ..> InclusionDependency: analyses >
    CombinationGenerator .l.> TaskGenerator: invokes >
}
@enduml

PlantUML version 1.2021.17beta4(Unknown compile time)
(GPL source distribution)
Java Runtime: Java(TM) SE Runtime Environment
JVM: Java HotSpot(TM) 64-Bit Server VM
Default Encoding: UTF-8
Language: en
Country: US
--></g></svg>