<?xml version="1.0" encoding="UTF-8" standalone="no"?>
<svg xmlns="http://www.w3.org/2000/svg" xmlns:xlink="http://www.w3.org/1999/xlink" contentScriptType="application/ecmascript" contentStyleType="text/css" height="489px" preserveAspectRatio="none" style="width:863px;height:489px;background:#FFFFFF;" version="1.1" viewBox="0 0 863 489" width="863px" zoomAndPan="magnify"><defs><filter height="300%" id="frp39bsnh2w9l" width="300%" x="-1" y="-1"><feGaussianBlur result="blurOut" stdDeviation="2.0"/><feColorMatrix in="blurOut" result="blurOut2" type="matrix" values="0 0 0 0 0 0 0 0 0 0 0 0 0 0 0 0 0 0 .4 0"/><feOffset dx="4.0" dy="4.0" in="blurOut2" result="blurOut3"/><feBlend in="SourceGraphic" in2="blurOut3" mode="normal"/></filter></defs><g><!--MD5=[b34797a66dc35cbf1d65f7e3ca75530e]
class Task--><rect codeLine="2" fill="#FEFECE" filter="url(#frp39bsnh2w9l)" height="105.1563" id="Task" style="stroke:#A80036;stroke-width:1.5;" width="152" x="419.5" y="213"/><ellipse cx="458.8" cy="231.9688" fill="#DA70D6" rx="11" ry="11" style="stroke:#A80036;stroke-width:1.0;"/><path d="M456.3156,235.2656 C455.6594,235.2656 455.2688,235.5781 455.2688,236.125 C455.2688,236.375 455.4094,236.6406 455.6281,236.7969 C455.7844,236.9219 456.0031,236.9688 456.4094,236.9688 L459.8781,236.9688 C461.3625,236.9688 462.3781,236.5781 463.2063,235.6875 C463.9875,234.875 464.3938,233.8281 464.3938,232.5781 L464.3938,231.7813 C464.3938,229.1094 462.5031,227.0625 460.0188,227.0625 L456.4094,227.0625 C455.9563,227.0625 455.8313,227.0781 455.675,227.1719 C455.425,227.3281 455.2688,227.625 455.2688,227.9063 C455.2688,228.4531 455.6438,228.75 456.3156,228.75 L456.3156,235.2656 Z M458.0031,235.2656 L458.0031,228.75 L459.8781,228.75 C460.7844,228.75 461.425,229.0313 461.9406,229.625 C462.425,230.2031 462.7063,230.9531 462.7063,231.75 L462.7063,232.5313 C462.7063,233.4063 462.4719,234 462.0031,234.5156 C461.4719,235.0625 460.9094,235.2656 459.8938,235.2656 L458.0031,235.2656 Z " fill="#000000"/><text fill="#000000" font-family="sans-serif" font-size="12" font-style="italic" lengthAdjust="spacing" textLength="70" x="476.2" y="229.1387">«dataclass»</text><text fill="#000000" font-family="sans-serif" font-size="12" lengthAdjust="spacing" textLength="28" x="497.2" y="243.1074">Task</text><line style="stroke:#A80036;stroke-width:1.5;" x1="420.5" x2="570.5" y1="250.9375" y2="250.9375"/><ellipse cx="430.5" cy="261.9375" rx="3" ry="3" style="stroke:#038048;stroke-width:1.0;fill:none;"/><text fill="#000000" font-family="sans-serif" font-size="11" lengthAdjust="spacing" textLength="111" x="439.5" y="265.1479">String tableNameA:</text><ellipse cx="430.5" cy="274.7422" rx="3" ry="3" style="stroke:#038048;stroke-width:1.0;fill:none;"/><text fill="#000000" font-family="sans-serif" font-size="11" lengthAdjust="spacing" textLength="108" x="439.5" y="277.9526">String tableNameB</text><ellipse cx="430.5" cy="287.5469" rx="3" ry="3" style="stroke:#038048;stroke-width:1.0;fill:none;"/><text fill="#000000" font-family="sans-serif" font-size="11" lengthAdjust="spacing" textLength="126" x="439.5" y="290.7573">String columnNamesA</text><ellipse cx="430.5" cy="300.3516" rx="3" ry="3" style="stroke:#038048;stroke-width:1.0;fill:none;"/><text fill="#000000" font-family="sans-serif" font-size="11" lengthAdjust="spacing" textLength="126" x="439.5" y="303.562">String columnNamesB</text><line style="stroke:#A80036;stroke-width:1.5;" x1="420.5" x2="570.5" y1="310.1563" y2="310.1563"/><!--MD5=[ad4adf042949c426453e3503d5e322ca]
class InclusionDependency--><rect codeLine="9" fill="#FEFECE" filter="url(#frp39bsnh2w9l)" height="105.1563" id="InclusionDependency" style="stroke:#A80036;stroke-width:1.5;" width="170" x="606.5" y="213"/><ellipse cx="625.55" cy="231.9688" fill="#DA70D6" rx="11" ry="11" style="stroke:#A80036;stroke-width:1.0;"/><path d="M623.0656,235.2656 C622.4094,235.2656 622.0188,235.5781 622.0188,236.125 C622.0188,236.375 622.1594,236.6406 622.3781,236.7969 C622.5344,236.9219 622.7531,236.9688 623.1594,236.9688 L626.6281,236.9688 C628.1125,236.9688 629.1281,236.5781 629.9563,235.6875 C630.7375,234.875 631.1438,233.8281 631.1438,232.5781 L631.1438,231.7813 C631.1438,229.1094 629.2531,227.0625 626.7688,227.0625 L623.1594,227.0625 C622.7063,227.0625 622.5813,227.0781 622.425,227.1719 C622.175,227.3281 622.0188,227.625 622.0188,227.9063 C622.0188,228.4531 622.3938,228.75 623.0656,228.75 L623.0656,235.2656 Z M624.7531,235.2656 L624.7531,228.75 L626.6281,228.75 C627.5344,228.75 628.175,229.0313 628.6906,229.625 C629.175,230.2031 629.4563,230.9531 629.4563,231.75 L629.4563,232.5313 C629.4563,233.4063 629.2219,234 628.7531,234.5156 C628.2219,235.0625 627.6594,235.2656 626.6438,235.2656 L624.7531,235.2656 Z " fill="#000000"/><text fill="#000000" font-family="sans-serif" font-size="12" font-style="italic" lengthAdjust="spacing" textLength="70" x="669.95" y="229.1387">«dataclass»</text><text fill="#000000" font-family="sans-serif" font-size="12" lengthAdjust="spacing" textLength="129" x="640.45" y="243.1074">InclusionDependency</text><line style="stroke:#A80036;stroke-width:1.5;" x1="607.5" x2="775.5" y1="250.9375" y2="250.9375"/><ellipse cx="617.5" cy="261.9375" rx="3" ry="3" style="stroke:#038048;stroke-width:1.0;fill:none;"/><text fill="#000000" font-family="sans-serif" font-size="11" lengthAdjust="spacing" textLength="132" x="626.5" y="265.1479">String dependentTable</text><ellipse cx="617.5" cy="274.7422" rx="3" ry="3" style="stroke:#038048;stroke-width:1.0;fill:none;"/><text fill="#000000" font-family="sans-serif" font-size="11" lengthAdjust="spacing" textLength="133" x="626.5" y="277.9526">String referencedTable</text><ellipse cx="617.5" cy="287.5469" rx="3" ry="3" style="stroke:#038048;stroke-width:1.0;fill:none;"/><text fill="#000000" font-family="sans-serif" font-size="11" lengthAdjust="spacing" textLength="143" x="626.5" y="290.7573">String dependentColumn</text><ellipse cx="617.5" cy="300.3516" rx="3" ry="3" style="stroke:#038048;stroke-width:1.0;fill:none;"/><text fill="#000000" font-family="sans-serif" font-size="11" lengthAdjust="spacing" textLength="144" x="626.5" y="303.562">String referencedColumn</text><line style="stroke:#A80036;stroke-width:1.5;" x1="607.5" x2="775.5" y1="310.1563" y2="310.1563"/><!--MD5=[3e567e4c5fb30c0cc0b9912190b2606f]
class TaskMessage--><rect codeLine="18" fill="#FEFECE" filter="url(#frp39bsnh2w9l)" height="92.3516" id="TaskMessage" style="stroke:#A80036;stroke-width:1.5;" width="241" x="345" y="383"/><ellipse cx="371.25" cy="401.9688" fill="#ADD8E6" rx="11" ry="11" style="stroke:#A80036;stroke-width:1.0;"/><path d="M368.1563,400.3594 L370.1719,404.625 L371.7188,404.625 L373.6094,400.3594 L373.6094,405.2656 L373.0156,405.2656 C372.5625,405.2656 372.4531,405.2813 372.2969,405.3906 C372.0469,405.5469 371.8906,405.8281 371.8906,406.125 C371.8906,406.375 372.0156,406.6406 372.25,406.7969 C372.375,406.9219 372.625,406.9688 373.0156,406.9688 L375.2188,406.9688 C375.5625,406.9688 375.8125,406.9219 375.9375,406.8438 C376.1875,406.6875 376.3438,406.4063 376.3438,406.125 C376.3438,405.5781 375.9688,405.2656 375.2969,405.2656 L375.2969,398.75 C375.8594,398.7031 376.1875,398.4063 376.1875,397.9063 C376.1875,397.6406 376.0469,397.375 375.8438,397.2031 C375.6719,397.0938 375.5313,397.0625 375.0625,397.0625 L373.2031,397.0625 L370.9063,402.1094 L368.5625,397.0625 L366.7031,397.0625 C366.6875,397.0469 366.6719,397.0469 366.6406,397.0469 C366.4375,397.0469 366.0781,397.1094 365.9844,397.1563 C365.7344,397.3281 365.5781,397.625 365.5781,397.8906 C365.5781,398.4063 365.9063,398.7031 366.4688,398.75 L366.4688,405.2656 C365.7969,405.2656 365.4219,405.5781 365.4219,406.125 C365.4219,406.3906 365.5625,406.6406 365.7813,406.7969 C365.9375,406.9219 366.1563,406.9688 366.5625,406.9688 L368.7656,406.9688 C369.0938,406.9688 369.3594,406.9219 369.4688,406.8438 C369.7344,406.6875 369.875,406.4063 369.875,406.125 C369.875,405.8438 369.7656,405.5938 369.5469,405.4219 C369.3594,405.2969 369.2188,405.2656 368.7656,405.2656 L368.1563,405.2656 L368.1563,400.3594 Z " fill="#000000"/><text fill="#000000" font-family="sans-serif" font-size="12" font-style="italic" lengthAdjust="spacing" textLength="188" x="385.75" y="399.1387">«DependencyWorker.Message»</text><text fill="#000000" font-family="sans-serif" font-size="12" lengthAdjust="spacing" textLength="83" x="438.25" y="413.1074">TaskMessage</text><line style="stroke:#A80036;stroke-width:1.5;" x1="346" x2="585" y1="420.9375" y2="420.9375"/><ellipse cx="356" cy="431.9375" rx="3" ry="3" style="stroke:#038048;stroke-width:1.0;fill:none;"/><text fill="#000000" font-family="sans-serif" font-size="11" lengthAdjust="spacing" textLength="26" x="365" y="435.1479">Task</text><text fill="#000000" font-family="sans-serif" font-size="11" lengthAdjust="spacing" textLength="23" x="493" y="435.1479">task</text><ellipse cx="356" cy="444.7422" rx="3" ry="3" style="stroke:#038048;stroke-width:1.0;fill:none;"/><text fill="#000000" font-family="sans-serif" font-size="11" lengthAdjust="spacing" textLength="108" x="365" y="447.9526">List&lt;Set&lt;String&gt;&gt;</text><text fill="#000000" font-family="sans-serif" font-size="11" lengthAdjust="spacing" textLength="87" x="493" y="447.9526">distinctValuesA</text><ellipse cx="356" cy="457.5469" rx="3" ry="3" style="stroke:#038048;stroke-width:1.0;fill:none;"/><text fill="#000000" font-family="sans-serif" font-size="11" lengthAdjust="spacing" textLength="108" x="365" y="460.7573">List&lt;Set&lt;String&gt;&gt;</text><text fill="#000000" font-family="sans-serif" font-size="11" lengthAdjust="spacing" textLength="87" x="493" y="460.7573">distinctValuesB</text><line style="stroke:#A80036;stroke-width:1.5;" x1="346" x2="585" y1="467.3516" y2="467.3516"/><!--MD5=[8a3e1156d256c91e942d891a77c994bc]
class CompletionMessage--><rect codeLine="26" fill="#FEFECE" filter="url(#frp39bsnh2w9l)" height="66.7422" id="CompletionMessage" style="stroke:#A80036;stroke-width:1.5;" width="228" x="621.5" y="395.5"/><ellipse cx="646.4" cy="414.4688" fill="#ADD8E6" rx="11" ry="11" style="stroke:#A80036;stroke-width:1.0;"/><path d="M643.3063,412.8594 L645.3219,417.125 L646.8688,417.125 L648.7594,412.8594 L648.7594,417.7656 L648.1656,417.7656 C647.7125,417.7656 647.6031,417.7813 647.4469,417.8906 C647.1969,418.0469 647.0406,418.3281 647.0406,418.625 C647.0406,418.875 647.1656,419.1406 647.4,419.2969 C647.525,419.4219 647.775,419.4688 648.1656,419.4688 L650.3688,419.4688 C650.7125,419.4688 650.9625,419.4219 651.0875,419.3438 C651.3375,419.1875 651.4938,418.9063 651.4938,418.625 C651.4938,418.0781 651.1188,417.7656 650.4469,417.7656 L650.4469,411.25 C651.0094,411.2031 651.3375,410.9063 651.3375,410.4063 C651.3375,410.1406 651.1969,409.875 650.9938,409.7031 C650.8219,409.5938 650.6813,409.5625 650.2125,409.5625 L648.3531,409.5625 L646.0563,414.6094 L643.7125,409.5625 L641.8531,409.5625 C641.8375,409.5469 641.8219,409.5469 641.7906,409.5469 C641.5875,409.5469 641.2281,409.6094 641.1344,409.6563 C640.8844,409.8281 640.7281,410.125 640.7281,410.3906 C640.7281,410.9063 641.0563,411.2031 641.6188,411.25 L641.6188,417.7656 C640.9469,417.7656 640.5719,418.0781 640.5719,418.625 C640.5719,418.8906 640.7125,419.1406 640.9313,419.2969 C641.0875,419.4219 641.3063,419.4688 641.7125,419.4688 L643.9156,419.4688 C644.2438,419.4688 644.5094,419.4219 644.6188,419.3438 C644.8844,419.1875 645.025,418.9063 645.025,418.625 C645.025,418.3438 644.9156,418.0938 644.6969,417.9219 C644.5094,417.7969 644.3688,417.7656 643.9156,417.7656 L643.3063,417.7656 L643.3063,412.8594 Z " fill="#000000"/><text fill="#000000" font-family="sans-serif" font-size="12" font-style="italic" lengthAdjust="spacing" textLength="178" x="660.6" y="411.6387">«DependencyMiner.Message»</text><text fill="#000000" font-family="sans-serif" font-size="12" lengthAdjust="spacing" textLength="123" x="688.1" y="425.6074">CompletionMessage</text><line style="stroke:#A80036;stroke-width:1.5;" x1="622.5" x2="848.5" y1="433.4375" y2="433.4375"/><ellipse cx="632.5" cy="444.4375" rx="3" ry="3" style="stroke:#038048;stroke-width:1.0;fill:none;"/><text fill="#000000" font-family="sans-serif" font-size="11" lengthAdjust="spacing" textLength="202" x="641.5" y="447.6479">List&lt;InclusionDependency&gt; results</text><line style="stroke:#A80036;stroke-width:1.5;" x1="622.5" x2="848.5" y1="454.2422" y2="454.2422"/><!--MD5=[43ad83f87ee79b03f97f1ec126056886]
class TaskGenerator--><rect codeLine="48" fill="#FEFECE" filter="url(#frp39bsnh2w9l)" height="124.8281" id="TaskGenerator" style="stroke:#A80036;stroke-width:1.5;" width="209" x="265" y="7"/><ellipse cx="320.75" cy="23" fill="#ADD1B2" rx="11" ry="11" style="stroke:#A80036;stroke-width:1.0;"/><path d="M323.0938,18.6719 C322.1563,18.2344 321.5625,18.0938 320.6875,18.0938 C318.0625,18.0938 316.0625,20.1719 316.0625,22.8906 L316.0625,24.0156 C316.0625,26.5938 318.1719,28.4844 321.0625,28.4844 C322.2813,28.4844 323.4375,28.1875 324.1875,27.6406 C324.7656,27.2344 325.0938,26.7813 325.0938,26.3906 C325.0938,25.9375 324.7031,25.5469 324.2344,25.5469 C324.0156,25.5469 323.8125,25.625 323.625,25.8125 C323.1719,26.2969 323.1719,26.2969 322.9844,26.3906 C322.5625,26.6563 321.875,26.7813 321.1094,26.7813 C319.0625,26.7813 317.7656,25.6875 317.7656,23.9844 L317.7656,22.8906 C317.7656,21.1094 319.0156,19.7969 320.75,19.7969 C321.3281,19.7969 321.9375,19.9531 322.4063,20.2031 C322.8906,20.4844 323.0625,20.7031 323.1563,21.1094 C323.2188,21.5156 323.25,21.6406 323.3906,21.7656 C323.5313,21.9063 323.7656,22.0156 323.9844,22.0156 C324.25,22.0156 324.5156,21.875 324.6875,21.6563 C324.7969,21.5 324.8281,21.3125 324.8281,20.8906 L324.8281,19.4688 C324.8281,19.0313 324.8125,18.9063 324.7188,18.75 C324.5625,18.4844 324.2813,18.3438 323.9844,18.3438 C323.6875,18.3438 323.4844,18.4375 323.2656,18.75 L323.0938,18.6719 Z " fill="#000000"/><text fill="#000000" font-family="sans-serif" font-size="12" lengthAdjust="spacing" textLength="89" x="341.25" y="27.1543">TaskGenerator</text><line style="stroke:#A80036;stroke-width:1.5;" x1="266" x2="473" y1="39" y2="39"/><line style="stroke:#A80036;stroke-width:1.5;" x1="266" x2="473" y1="47" y2="47"/><ellipse cx="276" cy="58" fill="#84BE84" rx="3" ry="3" style="stroke:#038048;stroke-width:1.0;"/><text fill="#000000" font-family="sans-serif" font-size="11" lengthAdjust="spacing" textLength="123" x="285" y="61.2104">static List&lt;Task&gt; run(</text><text fill="#000000" font-family="sans-serif" font-size="11" lengthAdjust="spacing" textLength="133" x="301" y="74.0151">LocalDataStorage data,</text><text fill="#000000" font-family="sans-serif" font-size="11" lengthAdjust="spacing" textLength="77" x="301" y="86.8198">String tableA,</text><text fill="#000000" font-family="sans-serif" font-size="11" lengthAdjust="spacing" textLength="77" x="301" y="99.6245">String tableB,</text><text fill="#000000" font-family="sans-serif" font-size="11" lengthAdjust="spacing" textLength="166" x="301" y="112.4292">List&lt;String&gt; columnNamesA,</text><text fill="#000000" font-family="sans-serif" font-size="11" lengthAdjust="spacing" textLength="167" x="301" y="125.2339">List&lt;String&gt; columnNamesB)</text><!--MD5=[7bf2dd6d93eca3eb63a5887cfe837ba8]
class CombinationGenerator--><rect codeLine="54" fill="#FEFECE" filter="url(#frp39bsnh2w9l)" height="86.4141" id="CombinationGenerator" style="stroke:#A80036;stroke-width:1.5;" width="238" x="572.5" y="26.5"/><ellipse cx="619.75" cy="42.5" fill="#ADD1B2" rx="11" ry="11" style="stroke:#A80036;stroke-width:1.0;"/><path d="M622.0938,38.1719 C621.1563,37.7344 620.5625,37.5938 619.6875,37.5938 C617.0625,37.5938 615.0625,39.6719 615.0625,42.3906 L615.0625,43.5156 C615.0625,46.0938 617.1719,47.9844 620.0625,47.9844 C621.2813,47.9844 622.4375,47.6875 623.1875,47.1406 C623.7656,46.7344 624.0938,46.2813 624.0938,45.8906 C624.0938,45.4375 623.7031,45.0469 623.2344,45.0469 C623.0156,45.0469 622.8125,45.125 622.625,45.3125 C622.1719,45.7969 622.1719,45.7969 621.9844,45.8906 C621.5625,46.1563 620.875,46.2813 620.1094,46.2813 C618.0625,46.2813 616.7656,45.1875 616.7656,43.4844 L616.7656,42.3906 C616.7656,40.6094 618.0156,39.2969 619.75,39.2969 C620.3281,39.2969 620.9375,39.4531 621.4063,39.7031 C621.8906,39.9844 622.0625,40.2031 622.1563,40.6094 C622.2188,41.0156 622.25,41.1406 622.3906,41.2656 C622.5313,41.4063 622.7656,41.5156 622.9844,41.5156 C623.25,41.5156 623.5156,41.375 623.6875,41.1563 C623.7969,41 623.8281,40.8125 623.8281,40.3906 L623.8281,38.9688 C623.8281,38.5313 623.8125,38.4063 623.7188,38.25 C623.5625,37.9844 623.2813,37.8438 622.9844,37.8438 C622.6875,37.8438 622.4844,37.9375 622.2656,38.25 L622.0938,38.1719 Z " fill="#000000"/><text fill="#000000" font-family="sans-serif" font-size="12" lengthAdjust="spacing" textLength="135" x="640.25" y="46.6543">CombinationGenerator</text><line style="stroke:#A80036;stroke-width:1.5;" x1="573.5" x2="809.5" y1="58.5" y2="58.5"/><line style="stroke:#A80036;stroke-width:1.5;" x1="573.5" x2="809.5" y1="66.5" y2="66.5"/><ellipse cx="583.5" cy="77.5" fill="#84BE84" rx="3" ry="3" style="stroke:#038048;stroke-width:1.0;"/><text fill="#000000" font-family="sans-serif" font-size="11" lengthAdjust="spacing" textLength="123" x="592.5" y="80.7104">static List&lt;Task&gt; run(</text><text fill="#000000" font-family="sans-serif" font-size="11" lengthAdjust="spacing" textLength="133" x="608.5" y="93.5151">LocalStorageData data,</text><text fill="#000000" font-family="sans-serif" font-size="11" lengthAdjust="spacing" textLength="196" x="608.5" y="106.3198">List&lt;InclusionDependency&gt; deps)</text><!--MD5=[e06ef809dd6be8ce79b58fe0a1161eb8]
class Column--><rect codeLine="33" fill="#FEFECE" filter="url(#frp39bsnh2w9l)" height="73.6094" id="Column" style="stroke:#A80036;stroke-width:1.5;" width="171" x="110" y="392"/><ellipse cx="169.25" cy="408" fill="#ADD1B2" rx="11" ry="11" style="stroke:#A80036;stroke-width:1.0;"/><path d="M171.5938,403.6719 C170.6563,403.2344 170.0625,403.0938 169.1875,403.0938 C166.5625,403.0938 164.5625,405.1719 164.5625,407.8906 L164.5625,409.0156 C164.5625,411.5938 166.6719,413.4844 169.5625,413.4844 C170.7813,413.4844 171.9375,413.1875 172.6875,412.6406 C173.2656,412.2344 173.5938,411.7813 173.5938,411.3906 C173.5938,410.9375 173.2031,410.5469 172.7344,410.5469 C172.5156,410.5469 172.3125,410.625 172.125,410.8125 C171.6719,411.2969 171.6719,411.2969 171.4844,411.3906 C171.0625,411.6563 170.375,411.7813 169.6094,411.7813 C167.5625,411.7813 166.2656,410.6875 166.2656,408.9844 L166.2656,407.8906 C166.2656,406.1094 167.5156,404.7969 169.25,404.7969 C169.8281,404.7969 170.4375,404.9531 170.9063,405.2031 C171.3906,405.4844 171.5625,405.7031 171.6563,406.1094 C171.7188,406.5156 171.75,406.6406 171.8906,406.7656 C172.0313,406.9063 172.2656,407.0156 172.4844,407.0156 C172.75,407.0156 173.0156,406.875 173.1875,406.6563 C173.2969,406.5 173.3281,406.3125 173.3281,405.8906 L173.3281,404.4688 C173.3281,404.0313 173.3125,403.9063 173.2188,403.75 C173.0625,403.4844 172.7813,403.3438 172.4844,403.3438 C172.1875,403.3438 171.9844,403.4375 171.7656,403.75 L171.5938,403.6719 Z " fill="#000000"/><text fill="#000000" font-family="sans-serif" font-size="12" lengthAdjust="spacing" textLength="44" x="189.75" y="412.1543">Column</text><line style="stroke:#A80036;stroke-width:1.5;" x1="111" x2="280" y1="424" y2="424"/><line style="stroke:#A80036;stroke-width:1.5;" x1="111" x2="280" y1="432" y2="432"/><ellipse cx="121" cy="443" fill="#84BE84" rx="3" ry="3" style="stroke:#038048;stroke-width:1.0;"/><text fill="#000000" font-family="sans-serif" font-size="11" lengthAdjust="spacing" textLength="126" x="130" y="446.2104">void add(String value)</text><ellipse cx="121" cy="455.8047" fill="#84BE84" rx="3" ry="3" style="stroke:#038048;stroke-width:1.0;"/><text fill="#000000" font-family="sans-serif" font-size="11" lengthAdjust="spacing" textLength="145" x="130" y="459.0151">Stream&lt;String&gt; stream()</text><!--MD5=[9ea2da2254e94ab3a8fc002db019d4f9]
class LocalDataStorage--><rect codeLine="38" fill="#FEFECE" filter="url(#frp39bsnh2w9l)" height="99.2188" id="LocalDataStorage" style="stroke:#A80036;stroke-width:1.5;" width="377" x="7" y="216"/><ellipse cx="138.25" cy="232" fill="#ADD1B2" rx="11" ry="11" style="stroke:#A80036;stroke-width:1.0;"/><path d="M140.5938,227.6719 C139.6563,227.2344 139.0625,227.0938 138.1875,227.0938 C135.5625,227.0938 133.5625,229.1719 133.5625,231.8906 L133.5625,233.0156 C133.5625,235.5938 135.6719,237.4844 138.5625,237.4844 C139.7813,237.4844 140.9375,237.1875 141.6875,236.6406 C142.2656,236.2344 142.5938,235.7813 142.5938,235.3906 C142.5938,234.9375 142.2031,234.5469 141.7344,234.5469 C141.5156,234.5469 141.3125,234.625 141.125,234.8125 C140.6719,235.2969 140.6719,235.2969 140.4844,235.3906 C140.0625,235.6563 139.375,235.7813 138.6094,235.7813 C136.5625,235.7813 135.2656,234.6875 135.2656,232.9844 L135.2656,231.8906 C135.2656,230.1094 136.5156,228.7969 138.25,228.7969 C138.8281,228.7969 139.4375,228.9531 139.9063,229.2031 C140.3906,229.4844 140.5625,229.7031 140.6563,230.1094 C140.7188,230.5156 140.75,230.6406 140.8906,230.7656 C141.0313,230.9063 141.2656,231.0156 141.4844,231.0156 C141.75,231.0156 142.0156,230.875 142.1875,230.6563 C142.2969,230.5 142.3281,230.3125 142.3281,229.8906 L142.3281,228.4688 C142.3281,228.0313 142.3125,227.9063 142.2188,227.75 C142.0625,227.4844 141.7813,227.3438 141.4844,227.3438 C141.1875,227.3438 140.9844,227.4375 140.7656,227.75 L140.5938,227.6719 Z " fill="#000000"/><text fill="#000000" font-family="sans-serif" font-size="12" lengthAdjust="spacing" textLength="106" x="158.75" y="236.1543">LocalDataStorage</text><line style="stroke:#A80036;stroke-width:1.5;" x1="8" x2="383" y1="248" y2="248"/><line style="stroke:#A80036;stroke-width:1.5;" x1="8" x2="383" y1="256" y2="256"/><ellipse cx="18" cy="267" fill="#84BE84" rx="3" ry="3" style="stroke:#038048;stroke-width:1.0;"/><text fill="#000000" font-family="sans-serif" font-size="11" lengthAdjust="spacing" textLength="351" x="27" y="270.2104">void addTable(String tableName, List&lt;String&gt; columnNames)</text><ellipse cx="18" cy="279.8047" fill="#84BE84" rx="3" ry="3" style="stroke:#038048;stroke-width:1.0;"/><text fill="#000000" font-family="sans-serif" font-size="11" lengthAdjust="spacing" textLength="320" x="27" y="283.0151">void addRow(String tableName, List&lt;String&gt; rowValues)</text><ellipse cx="18" cy="292.6094" fill="#84BE84" rx="3" ry="3" style="stroke:#038048;stroke-width:1.0;"/><text fill="#000000" font-family="sans-serif" font-size="11" lengthAdjust="spacing" textLength="284" x="27" y="295.8198">List&lt;String&gt; getColumnNames(String tableName)</text><ellipse cx="18" cy="305.4141" fill="#84BE84" rx="3" ry="3" style="stroke:#038048;stroke-width:1.0;"/><text fill="#000000" font-family="sans-serif" font-size="11" lengthAdjust="spacing" textLength="317" x="27" y="308.6245">void getColumn(String tableName, String columnName)</text><!--MD5=[29f292cc5ae819d692eae41ca54cf283]
reverse link TaskMessage to Task--><path codeLine="24" d="M476.275,369.994 C479.428,353.021 482.852,334.587 485.925,318.044 " fill="none" id="TaskMessage-backto-Task" style="stroke:#A80036;stroke-width:1.0;"/><polygon fill="#FFFFFF" points="473.872,382.931,478.9005,377.7625,476.0636,371.1328,471.0351,376.3014,473.872,382.931" style="stroke:#A80036;stroke-width:1.0;"/><text fill="#000000" font-family="sans-serif" font-size="13" lengthAdjust="spacing" textLength="8" x="476.1009" y="338.1777">1</text><!--MD5=[0c0b31480e544e1dd301722c3b950081]
link InclusionDependency to CompletionMessage--><path codeLine="30" d="M705.543,318.044 C711.196,338.792 717.659,362.514 723.131,382.6 " fill="none" id="InclusionDependency-to-CompletionMessage" style="stroke:#A80036;stroke-width:1.0;"/><polygon fill="#A80036" points="726.566,395.207,728.8482,388.3666,723.4117,383.629,721.1295,390.4694,726.566,395.207" style="stroke:#A80036;stroke-width:1.0;"/><text fill="#000000" font-family="sans-serif" font-size="13" lengthAdjust="spacing" textLength="24" x="681.8175" y="338.1777">0..n</text><!--MD5=[430cb1e8941620c138745389a4b95fea]
reverse link LocalDataStorage to Column--><path codeLine="45" d="M195.5,328.437 C195.5,349.869 195.5,373.172 195.5,391.842 " fill="none" id="LocalDataStorage-backto-Column" style="stroke:#A80036;stroke-width:1.0;"/><polygon fill="#A80036" points="195.5,315.394,191.5,321.394,195.5,327.394,199.5,321.394,195.5,315.394" style="stroke:#A80036;stroke-width:1.0;"/><text fill="#000000" font-family="sans-serif" font-size="13" lengthAdjust="spacing" textLength="24" x="169.3625" y="381.0008">0..n</text><!--MD5=[5b3939f20deb326880b667e2bc5fa974]
link TaskGenerator to Task--><path codeLine="51" d="M409.54,132.149 C425.414,156.59 443.541,184.5 459.044,208.369 " fill="none" id="TaskGenerator-to-Task" style="stroke:#A80036;stroke-width:1.0;stroke-dasharray:7.0,7.0;"/><polygon fill="#A80036" points="461.907,212.777,460.36,203.0504,459.1838,208.5836,453.6506,207.4075,461.907,212.777" style="stroke:#A80036;stroke-width:1.0;"/><polygon fill="#000000" points="447.2234,176.7596,444.7614,167.5732,439.832,170.7748,447.2234,176.7596" style="stroke:#000000;stroke-width:1.0;"/><text fill="#000000" font-family="sans-serif" font-size="13" lengthAdjust="spacing" textLength="48" x="453.5" y="177.0669">creates</text><!--MD5=[7b72e66cc585e26fbcb6a74d5f9f5c12]
link TaskGenerator to LocalDataStorage--><path codeLine="52" d="M314.206,132.149 C291.159,157.846 264.672,187.378 242.573,212.016 " fill="none" id="TaskGenerator-to-LocalDataStorage" style="stroke:#A80036;stroke-width:1.0;stroke-dasharray:7.0,7.0;"/><polygon fill="#A80036" points="239.066,215.927,248.0527,211.8972,242.4042,212.2046,242.0968,206.5561,239.066,215.927" style="stroke:#A80036;stroke-width:1.0;"/><polygon fill="#000000" points="284.1615,176.2886,292.3887,171.5174,288.013,167.5928,284.1615,176.2886" style="stroke:#000000;stroke-width:1.0;"/><text fill="#000000" font-family="sans-serif" font-size="13" lengthAdjust="spacing" textLength="47" x="296.5" y="177.0669">queries</text><!--MD5=[cfa460c09f44f65b6384872674408919]
link CombinationGenerator to InclusionDependency--><path codeLine="58" d="M691.5,112.595 C691.5,140.406 691.5,177.196 691.5,207.604 " fill="none" id="CombinationGenerator-to-InclusionDependency" style="stroke:#A80036;stroke-width:1.0;stroke-dasharray:7.0,7.0;"/><polygon fill="#A80036" points="691.5,212.814,695.5,203.814,691.5,207.814,687.5,203.814,691.5,212.814" style="stroke:#A80036;stroke-width:1.0;"/><polygon fill="#000000" points="696.5,177.5664,699.4389,168.5213,693.5611,168.5213,696.5,177.5664" style="stroke:#000000;stroke-width:1.0;"/><text fill="#000000" font-family="sans-serif" font-size="13" lengthAdjust="spacing" textLength="57" x="705.5" y="177.0669">analyses</text><!--MD5=[17465b4ff69e7bcdac64ea36bd4653e2]
reverse link TaskGenerator to CombinationGenerator--><path codeLine="59" d="M479.225,69.5 C509.232,69.5 541.893,69.5 572.398,69.5 " fill="none" id="TaskGenerator-backto-CombinationGenerator" style="stroke:#A80036;stroke-width:1.0;stroke-dasharray:7.0,7.0;"/><polygon fill="#A80036" points="474.044,69.5,483.044,73.5,479.044,69.5,483.044,65.5,474.044,69.5" style="stroke:#A80036;stroke-width:1.0;"/><polygon fill="#000000" points="491.25,58.0664,500.2951,61.0053,500.2951,55.1275,491.25,58.0664" style="stroke:#000000;stroke-width:1.0;"/><text fill="#000000" font-family="sans-serif" font-size="13" lengthAdjust="spacing" textLength="49" x="505.25" y="62.5669">invokes</text><!--MD5=[5f355b4307b0727e7ae03de42d2ad294]
@startuml
together {
     class Task << (D,orchid) dataclass >> {
         +String tableNameA:
         +String tableNameB
         +String columnNamesA
         +String columnNamesB
     }
     
     class InclusionDependency << (D,orchid) dataclass >> {
         +String dependentTable
         +String referencedTable
         +String dependentColumn
         +String referencedColumn
     }
}

together {
    class TaskMessage << (M,lightblue) DependencyWorker.Message >> {
       +Task\t\t\t\ttask 
       +List<Set<String>>\tdistinctValuesA
       +List<Set<String>>\tdistinctValuesB
    }

    TaskMessage o- - "1" Task
     
    class CompletionMessage << (M,lightblue) DependencyMiner.Message >> {
        +List<InclusionDependency> results
    }
     
    InclusionDependency "0..n" - -* CompletionMessage
}

class Column {
    + void add(String value)
    + Stream<String> stream()
}

class LocalDataStorage {
    + void addTable(String tableName, List<String> columnNames)
    + void addRow(String tableName, List<String> rowValues)
    + List<String> getColumnNames(String tableName)
    + void getColumn(String tableName, String columnName)
}

LocalDataStorage *- - "0..n" Column

together {
    class TaskGenerator {
        + static List<Task> run(\n    LocalDataStorage data,\n    String tableA,\n    String tableB, \n    List<String> columnNamesA,\n    List<String> columnNamesB)
    }
    TaskGenerator ..> Task : creates >
    TaskGenerator ..> LocalDataStorage : queries >

    class CombinationGenerator {
        + static List<Task> run(\n    LocalStorageData data,\n    List<InclusionDependency> deps) 
    }

    CombinationGenerator ..> InclusionDependency: analyses >
    CombinationGenerator .l.> TaskGenerator: invokes >
}
@enduml

PlantUML version 1.2021.17beta4(Unknown compile time)
(GPL source distribution)
Java Runtime: Java(TM) SE Runtime Environment
JVM: Java HotSpot(TM) 64-Bit Server VM
Default Encoding: UTF-8
Language: en
Country: US
--></g></svg>